<?xml version="1.0" encoding="utf-8"?>
<!-- Generator: Adobe Illustrator 16.0.0, SVG Export Plug-In . SVG Version: 6.00 Build 0)  -->
<!DOCTYPE svg PUBLIC "-//W3C//DTD SVG 1.1//EN" "http://www.w3.org/Graphics/SVG/1.1/DTD/svg11.dtd">
<svg version="1.1" id="Layer_1" xmlns="http://www.w3.org/2000/svg" xmlns:xlink="http://www.w3.org/1999/xlink" x="0px" y="0px"
	 width="245px" height="230px" viewBox="0 0 245 230" enable-background="new 0 0 245 230" xml:space="preserve">
<g>
	<path d="M112.698,43.38h12.364l65.221,64.77l-63.752,64.465h-13.375l-49.513-50.03h13.573l35.482,35.646L112.698,43.38
		L112.698,43.38z M125.389,57.363c0,37.413,0,74.842,0,112.104c18.697-18.693,37.422-37.412,56.06-56.044
		C162.809,94.784,144.094,76.07,125.389,57.363z M115.432,45.734c0,0.53,0,0.965,0,1.398c0,5.959,0,11.919,0,17.878
		c0,31.517,0.004,63.033-0.019,94.551c0,0.871,0.236,1.482,0.866,2.086c1.933,1.855,3.802,3.777,5.701,5.668
		c0.234,0.232,0.501,0.433,0.836,0.719c0-40.855,0-81.551,0-122.299C120.369,45.734,117.985,45.734,115.432,45.734z M125.271,47.151
		c0,1.655,0.043,3.356-0.017,5.054c-0.032,0.899,0.22,1.545,0.876,2.201c18.854,18.812,37.684,37.651,56.518,56.483
		c0.271,0.271,0.562,0.521,0.74,0.685c1.152-1.102,2.242-2.143,3.226-3.08C166.172,88.052,145.746,67.626,125.271,47.151z
		 M121.331,170.248c-0.29-0.35-0.4-0.506-0.533-0.641c-14.728-14.73-44.698-44.7-44.958-44.705c-2.053-0.042-4.107,0-6.392,0
		c0.453,0.483,0.71,0.764,0.984,1.039c2.542,2.547,5.088,5.09,7.632,7.635c11.931,11.931,23.859,23.863,35.805,35.779
		c0.392,0.391,0.954,0.824,1.457,0.853C117.233,170.309,119.15,170.248,121.331,170.248z"/>
</g>
<path d="M126.963,107.997"/>
<path d="M75.839,124.914"/>
</svg>
